<?xml version="1.0"?>
<svg xmlns="http://www.w3.org/2000/svg" id="Layer_3" data-name="Layer 3" viewBox="0 0 64 64" width="512" height="512" fill="#008dd2">
  <path d="M31.085,50.328l-5.747-1.277L22,47.382V45.789a7.227,7.227,0,0,0,1.655-1.507A10.723,10.723,0,0,0,25.716,40H27a2.993,2.993,0,0,0,.215-5.978l.678-3.387a5.511,5.511,0,0,0-2.568-5.806A12.829,12.829,0,0,0,18.723,23H17.277a12.829,12.829,0,0,0-6.6,1.829,5.51,5.51,0,0,0-2.568,5.805l.678,3.388A2.993,2.993,0,0,0,9,40h1.284a10.723,10.723,0,0,0,2.061,4.282A7.227,7.227,0,0,0,14,45.789v1.593l-3.338,1.669L4.915,50.328A4.968,4.968,0,0,0,1,55.208V62a1,1,0,0,0,1,1H34a1,1,0,0,0,1-1V55.208A4.968,4.968,0,0,0,31.085,50.328ZM21.072,49.154l2.24,1.12-2.2,2.2-1.674-2.232ZM28,37a1,1,0,0,1-1,1H25.983c0-.135.017-.268.017-.4V36h1A1,1,0,0,1,28,37ZM11.7,26.543A10.844,10.844,0,0,1,17.277,25h1.446A10.844,10.844,0,0,1,24.3,26.543a3.513,3.513,0,0,1,1.636,3.7l-.06.3A.988.988,0,0,0,25,30a6.59,6.59,0,0,0-5.018,2.31L18.921,30.9A4.738,4.738,0,0,0,12.5,29.8l-2.059,1.373a.955.955,0,0,0-.163.141l-.214-1.068a3.511,3.511,0,0,1,1.636-3.7ZM9,38a1,1,0,0,1,0-2h1v1.6c0,.135.012.268.017.4Zm3-.4V32.535l1.613-1.076a2.818,2.818,0,0,1,3.708.636L19.2,34.6a.957.957,0,0,0,.827.4,1,1,0,0,0,.8-.445l.336-.5A4.6,4.6,0,0,1,24,32.109V37.6a8.734,8.734,0,0,1-1.907,5.436,5.242,5.242,0,0,1-8.186,0A8.734,8.734,0,0,1,12,37.6ZM18,47a7.293,7.293,0,0,0,2-.29v.755L18,48.8l-2-1.333V46.71A7.255,7.255,0,0,0,18,47Zm-3.072,2.154,1.638,1.092-1.674,2.232-2.2-2.2ZM3,55.208A2.982,2.982,0,0,1,5.349,52.28L10.681,51.1l3.612,3.612A1,1,0,0,0,15,55l.071,0a1,1,0,0,0,.729-.4L17,53v8H10V58H8v3H3ZM33,61H28V58H26v3H19V53l1.2,1.6a1,1,0,0,0,.729.4L21,55a1,1,0,0,0,.707-.293L25.319,51.1l5.332,1.185A2.982,2.982,0,0,1,33,55.208Z"/>
  <path d="M62.707,24.293l-6-6A1,1,0,0,0,56,18H55V13a1,1,0,0,0-1-1H52.357a12.7,12.7,0,0,0-.791-1.91l1.162-1.161a1,1,0,0,0,0-1.414L48.485,3.272a1,1,0,0,0-1.414,0L45.91,4.433A12.8,12.8,0,0,0,44,3.643V2a1,1,0,0,0-1-1H37a1,1,0,0,0-1,1V3.643a12.8,12.8,0,0,0-1.91.79L32.929,3.272a1,1,0,0,0-1.414,0L27.272,7.515a1,1,0,0,0,0,1.414l1.162,1.161A12.7,12.7,0,0,0,27.643,12H26a1,1,0,0,0-1,1v6a1,1,0,0,0,1,1h1.643a12.7,12.7,0,0,0,.791,1.91l-1.162,1.161a1,1,0,0,0,0,1.414l4.243,4.243a1,1,0,0,0,1.414,0l1.161-1.161c.293.15.6.264.91.391V41a1,1,0,0,0,1,1H62a1,1,0,0,0,1-1V25A1,1,0,0,0,62.707,24.293ZM57,21.414,59.586,24H57ZM34.423,25.468a1,1,0,0,0-1.216.154l-.985.985-2.828-2.829.984-.985a1,1,0,0,0,.154-1.215,10.939,10.939,0,0,1-1.17-2.828,1,1,0,0,0-.968-.75H27V14h1.394a1,1,0,0,0,.968-.75,10.939,10.939,0,0,1,1.17-2.828,1,1,0,0,0-.154-1.215l-.984-.985,2.828-2.829.985.985a1,1,0,0,0,1.216.154A10.949,10.949,0,0,1,37.25,5.361,1,1,0,0,0,38,4.393V3h4V4.393a1,1,0,0,0,.75.968,10.949,10.949,0,0,1,2.827,1.171,1,1,0,0,0,1.216-.154l.985-.985,2.828,2.829-.984.985a1,1,0,0,0-.154,1.215,10.939,10.939,0,0,1,1.17,2.828,1,1,0,0,0,.968.75H53v4H48.767A9,9,0,1,0,35,23.46v2.312C34.806,25.673,34.609,25.579,34.423,25.468ZM35,19v1.891A6.994,6.994,0,1,1,46.71,18H36A1,1,0,0,0,35,19Zm2,21V20H55v5a1,1,0,0,0,1,1h5V40Z"/>
  <rect x="43" y="22" width="10" height="2"/>
  <rect x="41" y="26" width="12" height="2"/>
  <path d="M57,30H41a1,1,0,0,0-1,1v6a1,1,0,0,0,1,1H57a1,1,0,0,0,1-1V31A1,1,0,0,0,57,30Zm-1,6H42V32H56Z"/>
  <path d="M51.759,44.349a1.033,1.033,0,0,0-1.518,0l-6,7A1,1,0,0,0,45,53h2v2H38a1,1,0,0,0-1,1v6a1,1,0,0,0,1,1H54a1,1,0,0,0,1-1V53h2a1,1,0,0,0,.759-1.651ZM54,51a1,1,0,0,0-1,1v9H39V57h9a1,1,0,0,0,1-1V52a1,1,0,0,0-1-1h-.826L51,46.537,54.826,51Z"/>
  <path d="M2,21H8a1,1,0,0,0,1-1V12h5v2a1,1,0,0,0,1.65.759l7-6a1,1,0,0,0,0-1.518l-7-6A1,1,0,0,0,14,2V4H2A1,1,0,0,0,1,5V20A1,1,0,0,0,2,21ZM3,6H15a1,1,0,0,0,1-1V4.174L20.464,8,16,11.826V11a1,1,0,0,0-1-1H8a1,1,0,0,0-1,1v8H3Z"/>
</svg>
